<?xml version="1.0" standalone="no"?>
<!DOCTYPE svg PUBLIC "-//W3C//DTD SVG 20010904//EN"
 "http://www.w3.org/TR/2001/REC-SVG-20010904/DTD/svg10.dtd">
<svg version="1.0" xmlns="http://www.w3.org/2000/svg"
 width="395.000000pt" height="69.000000pt" viewBox="0 0 395.000000 69.000000"
 preserveAspectRatio="xMidYMid meet">

<g transform="translate(0.000000,69.000000) scale(0.100000,-0.100000)"
fill="#000000" stroke="none">
<path d="M1850 590 c0 -13 7 -20 20 -20 19 0 20 -7 20 -150 0 -143 -1 -150
-20 -150 -13 0 -20 -7 -20 -20 0 -18 7 -20 60 -20 53 0 60 2 60 20 0 13 -7 20
-20 20 -19 0 -20 7 -20 170 l0 170 -40 0 c-33 0 -40 -3 -40 -20z"/>
<path d="M20 575 c0 -16 6 -25 15 -25 13 0 15 -22 15 -140 0 -118 -2 -140 -15
-140 -8 0 -15 -9 -15 -20 0 -18 7 -20 55 -20 48 0 55 2 55 20 0 13 -7 20 -20
20 -19 0 -20 7 -20 140 0 77 2 140 6 140 3 0 11 -15 18 -32 8 -18 37 -90 66
-160 38 -94 57 -128 69 -128 13 0 33 40 81 160 35 88 65 160 67 160 2 0 3 -63
3 -140 0 -133 -1 -140 -20 -140 -13 0 -20 -7 -20 -20 0 -18 7 -20 60 -20 53 0
60 2 60 20 0 13 -7 20 -20 20 -19 0 -20 7 -20 140 0 133 1 140 20 140 15 0 20
7 20 25 0 24 -3 25 -54 25 l-54 0 -59 -160 c-32 -88 -60 -160 -63 -160 -3 0
-22 48 -44 108 -21 59 -47 131 -58 160 l-19 52 -55 0 c-51 0 -54 -1 -54 -25z"/>
<path d="M1144 585 c-4 -9 -2 -21 4 -27 16 -16 47 -5 47 17 0 26 -42 34 -51
10z"/>
<path d="M1560 581 c0 -12 6 -21 15 -21 13 0 15 -23 15 -145 0 -122 -2 -145
-15 -145 -8 0 -15 -9 -15 -20 0 -18 7 -20 55 -20 48 0 55 2 55 20 0 11 -7 20
-15 20 -12 0 -15 14 -15 65 l0 65 40 0 c61 0 108 24 124 62 18 42 11 80 -21
110 -22 20 -36 23 -124 26 -95 4 -99 3 -99 -17z m194 -37 c21 -20 20 -63 -1
-86 -11 -13 -30 -18 -65 -18 l-48 0 0 60 0 60 49 0 c32 0 55 -6 65 -16z"/>
<path d="M930 483 c-30 -11 -50 -37 -50 -63 0 -32 19 -51 83 -78 55 -24 69
-48 41 -69 -23 -17 -75 -10 -87 12 -12 23 -47 19 -47 -5 0 -11 6 -20 14 -20 7
0 19 -7 26 -15 21 -25 96 -20 125 10 47 46 24 92 -60 122 -42 16 -50 23 -50
43 0 21 5 25 36 28 23 2 40 -2 49 -12 17 -22 50 -20 50 2 0 30 -88 60 -130 45z"/>
<path d="M1342 475 c-23 -10 -39 -28 -53 -60 -26 -59 -18 -108 27 -152 26 -27
40 -33 77 -33 46 0 97 29 97 55 0 21 -25 25 -38 5 -16 -27 -68 -35 -97 -16
-50 33 -54 140 -5 166 27 15 73 12 96 -5 28 -21 54 -19 54 5 0 11 -6 20 -14
20 -7 0 -27 7 -42 15 -36 18 -59 18 -102 0z"/>
<path d="M2062 479 c-53 -16 -34 -35 31 -31 47 3 57 1 66 -16 24 -45 15 -57
-44 -57 -66 0 -98 -25 -98 -76 0 -57 69 -88 126 -58 16 9 22 9 25 0 2 -6 19
-11 38 -11 27 0 34 4 34 20 0 11 -7 20 -15 20 -12 0 -15 15 -15 75 0 84 -12
118 -47 134 -28 13 -55 13 -101 0z m106 -171 c-2 -27 -9 -34 -36 -42 -58 -16
-106 26 -70 62 7 7 34 12 61 12 l48 0 -3 -32z"/>
<path d="M2642 475 c-43 -19 -66 -72 -59 -139 6 -67 47 -106 112 -106 49 0 98
18 92 34 -2 6 -13 9 -23 8 -65 -12 -106 -6 -125 17 -10 13 -19 32 -19 42 0 17
8 19 91 19 l92 0 -7 43 c-4 29 -16 51 -36 70 -34 30 -68 34 -118 12z m102 -47
c9 -12 16 -26 16 -30 0 -5 -31 -8 -70 -8 -38 0 -70 3 -70 8 0 4 7 18 16 30 11
16 25 22 54 22 29 0 43 -6 54 -22z"/>
<path d="M530 460 c0 -13 7 -20 20 -20 18 0 20 -7 20 -85 0 -72 3 -88 20 -105
23 -23 79 -27 113 -9 16 9 22 9 25 0 2 -6 19 -11 38 -11 27 0 34 4 34 20 0 11
-7 20 -15 20 -12 0 -15 18 -15 105 l0 105 -40 0 c-33 0 -40 -3 -40 -20 0 -13
7 -20 20 -20 18 0 20 -7 20 -78 0 -75 -1 -79 -25 -90 -72 -33 -95 -4 -95 116
l0 92 -40 0 c-33 0 -40 -3 -40 -20z"/>
<path d="M1110 460 c0 -13 7 -20 20 -20 18 0 20 -7 20 -85 0 -78 -2 -85 -20
-85 -13 0 -20 -7 -20 -20 0 -18 7 -20 60 -20 53 0 60 2 60 20 0 13 -7 20 -20
20 -19 0 -20 7 -20 105 l0 105 -40 0 c-33 0 -40 -3 -40 -20z"/>
<path d="M2280 464 c0 -9 6 -22 14 -28 14 -12 86 -187 86 -211 0 -25 -23 -65
-37 -65 -7 0 -13 -9 -13 -20 0 -17 7 -20 45 -20 38 0 45 3 45 20 0 11 -7 20
-15 20 -8 0 -15 1 -15 3 0 1 24 63 54 137 34 86 60 136 70 138 9 2 16 12 16
23 0 16 -7 19 -45 19 -38 0 -45 -3 -45 -19 0 -11 5 -21 11 -23 8 -3 2 -29 -17
-81 -16 -42 -32 -73 -36 -69 -4 4 -16 32 -27 62 -10 30 -22 63 -26 73 -5 12
-2 17 9 17 9 0 16 8 16 20 0 17 -7 20 -45 20 -35 0 -45 -4 -45 -16z"/>
<path d="M2870 460 c0 -11 7 -20 15 -20 12 0 15 -16 15 -85 0 -69 -3 -85 -15
-85 -8 0 -15 -9 -15 -20 0 -18 7 -20 60 -20 53 0 60 2 60 20 0 15 -7 20 -25
20 -24 0 -25 2 -25 65 0 58 3 69 27 93 17 17 28 22 31 14 2 -7 12 -12 23 -12
14 0 19 7 19 25 0 21 -5 25 -28 25 -15 0 -38 -7 -50 -16 -20 -14 -22 -14 -22
0 0 12 -10 16 -35 16 -28 0 -35 -4 -35 -20z"/>
<path d="M3620 450 c0 -5 5 -10 11 -10 5 0 7 5 4 10 -3 6 -8 10 -11 10 -2 0
-4 -4 -4 -10z"/>
<path d="M3363 441 l-72 -6 33 -39 33 -40 46 14 c44 12 47 15 47 46 0 19 -3
33 -7 32 -5 -1 -40 -4 -80 -7z"/>
<path d="M3500 424 c0 -20 4 -25 16 -20 9 3 27 9 40 12 40 10 29 34 -16 34
-36 0 -40 -2 -40 -26z"/>
<path d="M3783 409 c-29 -17 -53 -37 -53 -45 0 -20 1 -19 66 31 67 52 62 58
-13 14z"/>
<path d="M3653 344 c-28 -12 -33 -19 -33 -50 l0 -35 35 27 c23 17 35 35 35 50
0 13 -1 24 -2 23 -2 0 -18 -7 -35 -15z"/>
<path d="M3533 283 c-31 -15 -33 -20 -33 -65 0 -53 0 -53 53 -14 21 16 27 28
27 58 0 43 -2 43 -47 21z"/>
<path d="M3418 224 c-19 -10 -31 -27 -38 -57 -6 -23 -16 -57 -22 -75 -5 -18
-8 -35 -6 -37 2 -2 25 13 51 33 46 36 47 37 47 94 0 32 -1 58 -2 58 -2 -1 -15
-7 -30 -16z"/>
</g>
</svg>
