<?xml version="1.0" standalone="no"?>
<!DOCTYPE svg PUBLIC "-//W3C//DTD SVG 20010904//EN"
 "http://www.w3.org/TR/2001/REC-SVG-20010904/DTD/svg10.dtd">
<svg version="1.0" xmlns="http://www.w3.org/2000/svg"
 width="512.000000pt" height="512.000000pt" viewBox="0 0 512.000000 512.000000"
 preserveAspectRatio="xMidYMid meet">

<g transform="translate(0.000000,512.000000) scale(0.100000,-0.100000)"
fill="#000000" stroke="none">
<path d="M1363 4785 c-179 -33 -386 -122 -528 -227 -260 -192 -444 -489 -500
-805 -23 -132 -23 -2254 0 -2386 93 -526 509 -940 1039 -1032 75 -13 217 -15
915 -15 454 0 831 4 837 8 15 9 34 47 34 65 0 8 -9 25 -19 38 l-19 24 -864 5
c-851 5 -864 6 -941 28 -221 62 -371 148 -526 302 -156 155 -245 311 -304 532
l-22 83 0 1155 0 1155 22 83 c59 221 148 377 304 532 157 156 312 244 531 303
l83 22 1155 0 1155 0 90 -24 c350 -92 643 -345 772 -666 65 -163 75 -219 80
-455 6 -231 12 -264 57 -276 24 -6 65 10 78 30 15 21 9 389 -7 482 -80 464
-407 844 -853 994 -183 61 -156 60 -1381 59 -876 -1 -1131 -4 -1188 -14z"/>
<path d="M2696 4015 c-684 -142 -983 -208 -995 -219 -15 -15 -16 -98 -19 -946
l-2 -930 -53 0 c-103 0 -219 -48 -307 -127 -218 -196 -230 -533 -25 -738 202
-203 505 -206 715 -9 75 71 129 167 149 262 7 36 11 328 11 902 l0 850 23 5
c29 7 91 20 607 125 239 50 445 92 458 95 l22 5 0 -518 0 -518 -87 -11 c-152
-21 -285 -103 -364 -226 -190 -294 -47 -686 286 -783 83 -24 211 -22 295 5
129 41 244 141 304 264 58 117 56 85 54 1438 l-3 1241 -24 19 c-13 10 -33 19
-45 18 -11 0 -461 -92 -1000 -204z m922 -1445 l-3 -925 -27 -57 c-37 -79 -98
-142 -177 -181 -59 -29 -74 -32 -156 -32 -77 0 -98 4 -147 27 -76 35 -151 107
-185 177 -25 50 -28 67 -28 156 0 90 3 106 28 157 36 74 101 139 175 175 51
25 68 28 171 30 91 1 117 5 132 19 18 16 19 42 19 656 0 625 0 638 -20 658
-11 11 -31 20 -44 20 -55 0 -1292 -262 -1308 -278 -17 -14 -18 -69 -18 -881 0
-547 -4 -889 -10 -930 -20 -123 -98 -228 -208 -279 -50 -24 -70 -27 -157 -27
-95 0 -103 2 -163 34 -128 70 -196 182 -196 326 0 69 4 89 31 147 39 84 97
141 181 181 62 30 75 32 175 32 102 0 110 1 128 24 18 22 19 52 19 956 l0 932
204 42 c112 23 513 106 892 184 l689 142 3 -280 c1 -154 1 -696 0 -1205z"/>
<path d="M4689 2911 l-24 -19 0 -350 c0 -330 1 -351 19 -371 24 -26 77 -28 99
-3 15 17 17 57 17 375 l0 356 -22 15 c-30 21 -61 20 -89 -3z"/>
<path d="M4684 1819 c-17 -19 -20 -44 -25 -223 -8 -220 -20 -285 -82 -441 -55
-136 -130 -247 -247 -365 -203 -202 -434 -308 -719 -329 -101 -7 -116 -10
-133 -31 -24 -29 -23 -65 2 -90 17 -17 33 -20 99 -20 279 0 593 128 818 335
147 135 291 362 348 548 41 138 55 245 55 432 0 154 -2 174 -18 188 -26 24
-75 21 -98 -4z"/>
</g>
</svg>
